<svg xmlns="http://www.w3.org/2000/svg" width="48" height="48" viewBox="0 0 48 48" fill="none">
  <rect width="48" height="48" rx="12" fill="#2E3148"/>
  <path fill-rule="evenodd" clip-rule="evenodd" d="M19.358 24.0495C19.358 23.5469 19.362 23.0485 19.3697 22.5547C18.5896 23.0386 17.7881 23.5479 16.9873 24.0736C17.7406 24.5997 18.5418 25.1411 19.3719 25.6758C19.3627 25.1391 19.358 24.5967 19.358 24.0495ZM19.3961 26.7351C18.2634 26.035 17.1785 25.3304 16.1503 24.6296C13.4473 26.4466 10.8405 28.4176 9.18528 30.1985C9.18528 30.1985 7.2576 31.9941 6.65184 33.7165C6.65184 33.7165 6.54028 34.1224 7.03411 34.1846H7.0343C7.0343 34.1846 8.75481 34.8019 14.1325 32.864C14.1325 32.864 16.5017 32.0042 19.5916 30.6076C19.5002 29.364 19.4342 28.0691 19.3961 26.7351ZM15.2831 24.03C13.7688 22.9678 12.392 21.92 11.1848 20.9161C11.0108 20.9939 10.8189 21.037 10.6172 21.037C9.82627 21.037 9.18508 20.3737 9.18508 19.5555C9.18508 19.429 9.20043 19.3061 9.2293 19.1888C6.5798 16.6829 5.26544 14.6114 5.89036 13.5308C6.88881 11.8041 12.5539 13.1129 19.6749 16.4512C20.3555 8.61581 22.0576 3.06177 24.0493 3.06177C26.0443 3.06177 27.7486 8.63354 28.427 16.4887C29.9256 15.793 31.3596 15.1863 32.6994 14.6777C32.694 14.6254 32.6913 14.5722 32.6913 14.5184C32.6913 13.7002 33.3324 13.0369 34.1234 13.0369C34.6465 13.0369 35.1041 13.327 35.354 13.7602C39.027 12.6303 41.6137 12.4894 42.2538 13.6049C43.2451 15.333 39.277 19.5759 32.8157 24.0672C39.2538 28.5853 43.2078 32.8438 42.2083 34.5678C41.2095 36.2951 35.5479 34.9849 28.4241 31.6441C27.7437 39.4814 26.0414 45.0372 24.0493 45.0372C22.7873 45.0372 21.6415 42.8072 20.7982 39.1798C20.1454 39.0418 19.6543 38.4444 19.6543 37.7283C19.6543 37.2223 19.8995 36.7756 20.2737 36.5083C20.027 35.0144 19.8235 33.3688 19.6715 31.6086C12.5179 34.9291 6.83661 36.2232 5.84409 34.4929C4.85278 32.7647 8.82123 28.5215 15.2831 24.03ZM21.726 39.0542C22.1959 38.8112 22.5185 38.3087 22.5185 37.7283C22.5185 36.9395 21.9226 36.2947 21.1711 36.2494C20.9232 34.6481 20.7474 32.904 20.6238 31.1588C21.7339 30.6253 22.8751 30.0457 24.0358 29.4235C25.2195 30.065 26.383 30.6618 27.5141 31.2102C27.1885 34.5694 26.7585 37.0371 26.7585 37.0371C25.7649 42.6666 24.3732 43.8527 24.3732 43.8527C24.077 44.2479 23.7807 43.9514 23.7807 43.9514C22.5876 42.569 21.9911 40.0008 21.9911 40.0008C21.8976 39.7001 21.8094 39.3839 21.726 39.0542ZM16.1175 23.4581C14.1476 22.046 12.6027 20.8174 11.8889 20.2375C11.9914 20.0334 12.0493 19.8014 12.0493 19.5555C12.0493 18.7373 11.4082 18.0741 10.6172 18.0741C10.2973 18.0741 10.0019 18.1826 9.76346 18.366C6.99135 15.7047 6.75302 14.4021 6.75302 14.4021L6.75168 14.3971C6.55968 13.9418 6.96499 13.8322 6.96499 13.8322C8.75942 13.4933 11.28 14.2655 11.28 14.2655C13.6508 14.8054 16.6634 16.0741 19.5907 17.5032C19.5001 18.7388 19.4345 20.025 19.3965 21.3499C18.2518 22.0506 17.1557 22.7562 16.1175 23.4581ZM33.1311 15.5866C33.3885 15.8426 33.7382 15.9999 34.1234 15.9999C34.8361 15.9999 35.4272 15.4613 35.5372 14.7562C39.1977 13.6078 40.6838 13.7422 41.2032 13.8852C41.3772 13.9337 41.4907 14.1007 41.472 14.2803C41.3733 15.3555 39.4719 17.2947 39.4719 17.2947C36.9359 19.8264 34.261 21.9362 32.029 23.5223C30.9769 22.803 29.8648 22.0794 28.7025 21.3607C28.6644 20.0279 28.5984 18.7343 28.5071 17.4918C30.2727 16.7059 31.8041 16.0813 33.1311 15.5866ZM20.4832 17.945C20.4552 18.2452 20.4278 18.5519 20.401 18.8651C20.401 18.8651 20.3763 19.5808 20.3611 20.7675C20.8042 20.5035 21.254 20.2407 21.7098 19.9793C22.1425 19.7312 22.5735 19.4885 23.0024 19.2514C22.1893 18.8168 21.3433 18.3764 20.4832 17.945ZM24.017 19.7997C22.9794 20.3888 21.7146 21.1235 20.3508 21.9524C20.3453 23.1744 20.3537 24.6803 20.3966 26.3227C21.2622 26.8577 22.1495 27.3765 23.0383 27.8559C23.0383 27.8559 23.3915 28.0729 24.0361 28.4331C24.9846 27.928 25.9317 27.3925 26.8416 26.8335C26.8416 26.8335 27.2068 26.6364 27.8423 26.2587C27.8766 25.1791 27.8837 24.0854 27.8517 23.0125C27.8517 23.0125 27.8614 22.6406 27.8528 21.9737C26.8004 21.356 25.4805 20.599 24.017 19.7997ZM27.8251 20.8248C27.3594 20.5439 26.8865 20.2641 26.4067 19.986C25.9539 19.7235 25.5028 19.4669 25.0541 19.2165C26.0946 18.6372 26.73 18.3012 26.73 18.3012C27.044 18.1551 27.3514 18.0137 27.6524 17.8766C27.7456 19.0196 27.7972 20.0189 27.8251 20.8248ZM28.7279 22.4916C28.7364 23.0059 28.7407 23.5255 28.7407 24.0495C28.7407 24.6122 28.7357 25.1698 28.726 25.7214C29.4163 25.2928 30.265 24.7456 31.2186 24.0892C30.9415 23.8917 30.657 23.6908 30.3648 23.4863C30.3648 23.4863 29.7536 23.1035 28.7279 22.4916ZM31.9825 24.6383C30.944 25.3405 29.8474 26.0464 28.7023 26.7474C28.6633 28.1048 28.5954 29.4216 28.5013 30.685C30.9927 31.8223 34.1596 33.0812 37.623 34.0099C37.623 34.0099 40.2522 34.6796 41.2339 34.2301C41.3981 34.1556 41.4848 33.9739 41.4394 33.7994C41.236 33.0254 39.9488 30.4165 31.9825 24.6383ZM27.6006 30.2657C27.6821 29.3185 27.7525 28.317 27.8012 27.292C27.3372 27.5688 26.866 27.8445 26.3881 28.1185C25.9049 28.3956 25.4237 28.666 24.9452 28.9294C25.6606 29.3112 26.5573 29.7704 27.6006 30.2657ZM23.1118 28.9159C22.243 29.3611 21.3828 29.7787 20.5588 30.1634C20.5019 29.2148 20.4594 28.274 20.4281 27.3638C20.8456 27.6144 21.269 27.8641 21.6977 28.1126C22.1712 28.3869 22.6428 28.6548 23.1118 28.9159ZM24.0652 18.6727C22.8817 18.0311 21.7182 17.4343 20.5869 16.886C21.5928 7.09845 23.2024 4.67672 23.7729 4.11258C23.9008 3.98609 24.1012 3.96989 24.2479 4.07418C25.1288 4.69838 25.8676 7.30881 25.8676 7.30881C26.8032 10.7821 27.3013 14.1646 27.565 16.8953C26.4272 17.4403 25.2565 18.0341 24.0652 18.6727ZM26.4691 23.9999C26.4691 25.3636 25.3637 26.4691 24 26.4691C22.6363 26.4691 21.5309 25.3636 21.5309 23.9999C21.5309 22.6363 22.6363 21.5308 24 21.5308C25.3637 21.5308 26.4691 22.6363 26.4691 23.9999Z" fill="white"/>
</svg>