<svg xmlns="http://www.w3.org/2000/svg" width="48" height="48" viewBox="0 0 48 48" fill="none">
  <rect width="48" height="48" rx="12" fill="#7B25FB"/>
  <path fill-rule="evenodd" clip-rule="evenodd" d="M32.54 12.193C27.963 9.053 21.909 8.605 16.871 11.033V11.034C11.831 13.462 8.66099 18.357 8.66099 23.704C8.66099 24.067 8.67499 24.427 8.70399 24.787C8.788 25.827 8.20199 26.813 7.21799 27.287L5.92599 27.909V30.815L9.72999 28.982L10.962 28.387L12.176 27.803L33.97 17.305L36.42 16.126L41.481 13.687V10.783L36.463 13.203L32.182 15.265L11.508 25.22C11.438 24.716 11.403 24.208 11.403 23.7C11.409 19.573 13.725 15.757 17.492 13.67C21.259 11.583 25.912 11.538 29.724 13.55L32.174 12.37L32.54 12.193ZM41.481 19.489V16.593L13.414 30.107L10.966 31.289L5.92599 33.717V36.62L10.931 34.209L15.212 32.146L35.907 22.175C35.977 22.682 36.012 23.193 36.012 23.705C36.009 27.839 33.69 31.661 29.918 33.749C26.145 35.837 21.486 35.878 17.673 33.856L17.523 33.932L14.866 35.212C19.442 38.354 25.495 38.803 30.533 36.375C35.572 33.948 38.745 29.053 38.747 23.705C38.747 23.34 38.732 22.974 38.703 22.612C38.62 21.572 39.205 20.586 40.188 20.112L41.481 19.489Z" fill="white"/>
</svg>