<svg xmlns="http://www.w3.org/2000/svg" width="48" height="48" viewBox="0 0 48 48" fill="none">
  <rect width="48" height="48" rx="12" fill="#26A17B"/>
  <path fill-rule="evenodd" clip-rule="evenodd" d="M26.9298 17.1571V20.7053L26.9336 20.7091C33.523 21.0125 38.4766 22.3219 38.4766 23.8848C38.4766 25.4515 33.523 26.7571 26.9336 27.0605V38.4346H21.0622V27.0605C14.4651 26.7533 9.5 25.4477 9.5 23.881C9.5 22.3143 14.4613 21.0087 21.0622 20.7053V17.1571H12.9406V11.7466H35.0514V17.1571H26.9298ZM26.9298 26.0851V26.089V26.0928C32.7474 25.8317 37.0904 24.8179 37.0904 23.6045C37.0904 22.3911 32.7512 21.3773 26.9298 21.1162V25.0791C26.7608 25.0944 25.8546 25.1712 24.0421 25.1712C22.533 25.1712 21.4386 25.1059 21.0584 25.0791V21.1123C15.2293 21.3696 10.8747 22.3872 10.8747 23.6007C10.8747 24.8179 15.2254 25.8317 21.0584 26.089V26.0851C21.4347 26.1043 22.4984 26.1466 24.0152 26.1466C25.9122 26.1466 26.7646 26.0967 26.9298 26.0851Z" fill="white"/>
</svg>