<svg xmlns="http://www.w3.org/2000/svg" width="24" height="24" viewBox="0 0 24 24" fill="none">
  <path d="M8.97266 19.3906C9.27734 19.3906 9.51953 19.2812 9.73047 19.0781L15.7227 13.2266C15.9883 12.9609 16.1133 12.6875 16.1211 12.3516C16.1211 12.0156 15.9961 11.7344 15.7227 11.4766L9.73047 5.61719C9.51953 5.41406 9.26953 5.30469 8.97266 5.30469C8.36328 5.30469 7.87891 5.78906 7.87891 6.39062C7.87891 6.6875 8.00391 6.96875 8.22266 7.1875L13.5352 12.3516L8.22266 17.5078C8.00391 17.7266 7.87891 18.0078 7.87891 18.3047C7.87891 18.9062 8.36328 19.3906 8.97266 19.3906Z" fill="#141029" fill-opacity="0.4"/>
</svg>