<svg xmlns="http://www.w3.org/2000/svg" width="48" height="48" viewBox="0 0 48 48" fill="none">
  <rect opacity="0.03" width="48" height="48" rx="12" fill="#FF5E00"/>
  <path d="M23.9961 31.8125C24.2695 31.8125 24.5508 31.7031 24.7383 31.5L29.8555 26.3828C30.0664 26.1719 30.168 25.9219 30.168 25.6641C30.168 25.0938 29.7617 24.6875 29.2148 24.6875C28.918 24.6875 28.6758 24.8125 28.4961 25L26.7148 26.7656L24.9336 28.7891L24.9961 27.0938V17.9453C24.9961 17.3281 24.5898 16.9141 23.9961 16.9141C23.4023 16.9141 22.9961 17.3281 22.9961 17.9453V27.0938L23.0664 28.7891L21.2773 26.7656L19.5039 25C19.3164 24.8125 19.082 24.6875 18.7852 24.6875C18.2383 24.6875 17.832 25.0938 17.832 25.6641C17.832 25.9219 17.9336 26.1719 18.1445 26.3828L23.2539 31.5C23.4492 31.7031 23.7227 31.8125 23.9961 31.8125Z" fill="#FF5E00"/>
</svg>