<svg xmlns="http://www.w3.org/2000/svg" width="24" height="24" viewBox="0 0 24 24" fill="none">
  <path fill-rule="evenodd" clip-rule="evenodd" d="M12.6484 21.9375L15.0547 19.5234C15.4219 19.1562 15.4062 18.5938 15.0469 18.2344L13.9531 17.1328L15.6094 15.4766C15.9609 15.1172 15.9609 14.5547 15.6016 14.1875L14.1016 12.6875C16.1953 11.6172 17.3672 9.85938 17.3672 7.78906C17.3672 4.82812 14.9766 2.42969 12 2.42969C9.01562 2.42969 6.63281 4.8125 6.63281 7.78906C6.63281 9.89844 7.82812 11.7969 9.73438 12.6719V19.9688C9.73438 20.2656 9.82812 20.6016 10.0859 20.8203L11.3594 21.9297C11.75 22.2578 12.2812 22.2969 12.6484 21.9375ZM12 20.4141L11.1641 19.5859V11.5469C9.42969 11.1797 8.15625 9.63281 8.15625 7.78906C8.15625 5.67188 9.86719 3.96094 12 3.96094C14.1328 3.96094 15.8438 5.67188 15.8438 7.78906C15.8438 9.61719 14.5547 11.1797 12.6094 11.5859V13.3672L14.0781 14.8438L12.5234 16.375V17.875L13.5312 18.8672L12 20.4141ZM13.3672 6.44531C13.3672 7.19531 12.75 7.8125 12 7.8125C11.25 7.8125 10.6406 7.19531 10.6406 6.44531C10.6406 5.6875 11.2422 5.08594 12 5.08594C12.75 5.08594 13.3672 5.69531 13.3672 6.44531Z" fill="#141029" fill-opacity="0.6"/>
</svg>