<svg xmlns="http://www.w3.org/2000/svg" width="24" height="24" viewBox="0 0 24 24" fill="none">
  <path fill-rule="evenodd" clip-rule="evenodd" d="M15.7422 20.1016C16.9844 20.1016 17.5938 19.4844 17.5938 18.1406V12.4453C17.5938 11.2578 17.1016 10.6328 16.1172 10.5156V8.75C16.1172 5.76562 14.1016 4.3125 12 4.3125C9.89844 4.3125 7.88281 5.76562 7.88281 8.75V10.5156C6.89062 10.6328 6.40625 11.2578 6.40625 12.4453V18.1406C6.40625 19.4844 7.01562 20.1016 8.25781 20.1016H15.7422ZM9.57031 10.4922V8.61719C9.57031 6.90625 10.6562 5.94531 12 5.94531C13.3438 5.94531 14.4297 6.90625 14.4297 8.61719V10.4922H9.57031ZM8.16406 17.9453C8.16406 18.3438 8.32812 18.5 8.65625 18.5H15.3438C15.6797 18.5 15.8359 18.3438 15.8359 17.9453V12.6406C15.8359 12.2422 15.6797 12.1016 15.3438 12.1016H8.65625C8.32812 12.1016 8.16406 12.2422 8.16406 12.6406V17.9453Z" fill="#141029" fill-opacity="0.6"/>
</svg>