<svg xmlns="http://www.w3.org/2000/svg" width="24" height="24" viewBox="0 0 24 24" fill="none">
  <path fill-rule="evenodd" clip-rule="evenodd" d="M18.3867 19.3359C19.9648 19.3359 20.8945 18.4141 20.8945 16.6875V8.04688C20.8945 6.32812 19.9648 5.40625 18.2305 5.40625H5.61328C4.03516 5.40625 3.10547 6.32812 3.10547 8.04688V16.6875C3.10547 18.4141 4.03516 19.3359 5.76953 19.3359H18.3867ZM12.0117 12.9844C11.7305 12.9844 11.4805 12.8516 11.1602 12.5391L5.65234 7.10156C5.70703 7.09375 5.76172 7.09375 5.81641 7.09375H18.1836C18.2461 7.09375 18.3008 7.09375 18.3633 7.10156L12.8555 12.5391C12.5352 12.8516 12.2852 12.9844 12.0117 12.9844ZM4.76953 8.3125V16.3438L8.83203 12.3125L4.76953 8.3125ZM19.2305 16.3203L15.1836 12.3125L19.2305 8.32812V16.3203ZM5.81641 17.6484H18.1836C18.2695 17.6484 18.3555 17.6406 18.4336 17.6328L14.1211 13.3516L13.7617 13.7109C13.1836 14.2812 12.6133 14.5312 12.0117 14.5312C11.4023 14.5312 10.832 14.2812 10.2539 13.7109L9.89453 13.3594L5.58203 17.6328C5.65234 17.6406 5.73047 17.6484 5.81641 17.6484Z" fill="#141029" fill-opacity="0.6"/>
</svg>