<svg xmlns="http://www.w3.org/2000/svg" width="48" height="48" viewBox="0 0 48 48" fill="none">
  <path fill-rule="evenodd" clip-rule="evenodd" d="M23.4258 21.9141C23.4258 23.1953 22.8164 23.7969 21.5664 23.7969H18.4727C17.2148 23.7969 16.6133 23.1953 16.6133 21.9141V18.8594C16.6133 17.5859 17.2148 16.9844 18.4727 16.9844H21.5664C22.8164 16.9844 23.4258 17.5859 23.4258 18.8594V21.9141ZM31.3867 21.9141C31.3867 23.1953 30.7852 23.7969 29.5273 23.7969H26.4336C25.1758 23.7969 24.5742 23.1953 24.5742 21.9141V18.8594C24.5742 17.5859 25.1758 16.9844 26.4336 16.9844H29.5273C30.7852 16.9844 31.3867 17.5859 31.3867 18.8594V21.9141ZM21.6367 22.4375H18.3945C18.1055 22.4375 17.9648 22.2969 17.9648 21.9922V18.7812C17.9648 18.4766 18.1055 18.3359 18.3945 18.3359H21.6367C21.9258 18.3359 22.0664 18.4766 22.0664 18.7812V21.9922C22.0664 22.2969 21.9258 22.4375 21.6367 22.4375ZM26.3633 22.4375H29.5977C29.8945 22.4375 30.0273 22.2969 30.0273 21.9922V18.7812C30.0273 18.4766 29.8945 18.3359 29.5977 18.3359H26.3633C26.0664 18.3359 25.9336 18.4766 25.9336 18.7812V21.9922C25.9336 22.2969 26.0664 22.4375 26.3633 22.4375ZM20.7305 21.2812C20.8633 21.2812 20.9102 21.2344 20.9102 21.0859V19.6797C20.9102 19.5469 20.8633 19.4922 20.7305 19.4922H19.2852C19.168 19.4922 19.1211 19.5469 19.1211 19.6797V21.0859C19.1211 21.2344 19.168 21.2812 19.2852 21.2812H20.7305ZM28.9023 21.0859C28.9023 21.2344 28.8555 21.2812 28.7305 21.2812H27.2852C27.1602 21.2812 27.1211 21.2344 27.1211 21.0859V19.6797C27.1211 19.5469 27.1602 19.4922 27.2852 19.4922H28.7305C28.8555 19.4922 28.9023 19.5469 28.9023 19.6797V21.0859ZM21.5664 31.7578C22.8164 31.7578 23.4258 31.1562 23.4258 29.875V26.8281C23.4258 25.5469 22.8164 24.9453 21.5664 24.9453H18.4727C17.2148 24.9453 16.6133 25.5469 16.6133 26.8281V29.875C16.6133 31.1562 17.2148 31.7578 18.4727 31.7578H21.5664ZM26.7617 26.8906C26.7617 27.0391 26.707 27.0859 26.582 27.0859H25.1367C25.0117 27.0859 24.9727 27.0391 24.9727 26.8906V25.4922C24.9727 25.3516 25.0117 25.3047 25.1367 25.3047H26.582C26.707 25.3047 26.7617 25.3516 26.7617 25.4922V26.8906ZM30.793 27.0859C30.9258 27.0859 30.9727 27.0391 30.9727 26.8906V25.4922C30.9727 25.3516 30.9258 25.3047 30.793 25.3047H29.3477C29.2305 25.3047 29.1836 25.3516 29.1836 25.4922V26.8906C29.1836 27.0391 29.2305 27.0859 29.3477 27.0859H30.793ZM18.3945 30.3984H21.6367C21.9258 30.3984 22.0664 30.2578 22.0664 29.9609V26.7422C22.0664 26.4453 21.9258 26.3047 21.6367 26.3047H18.3945C18.1055 26.3047 17.9648 26.4453 17.9648 26.7422V29.9609C17.9648 30.2578 18.1055 30.3984 18.3945 30.3984ZM28.707 29.1953C28.832 29.1953 28.8867 29.1406 28.8867 29V27.5938C28.8867 27.4609 28.832 27.4062 28.707 27.4062H27.2617C27.1445 27.4062 27.0977 27.4609 27.0977 27.5938V29C27.0977 29.1406 27.1445 29.1953 27.2617 29.1953H28.707ZM20.9102 29.0469C20.9102 29.1953 20.8633 29.2422 20.7305 29.2422H19.2852C19.168 29.2422 19.1211 29.1953 19.1211 29.0469V27.6484C19.1211 27.5078 19.168 27.4531 19.2852 27.4531H20.7305C20.8633 27.4531 20.9102 27.5078 20.9102 27.6484V29.0469ZM26.582 31.3047C26.707 31.3047 26.7617 31.25 26.7617 31.1016V29.7031C26.7617 29.5625 26.707 29.5156 26.582 29.5156H25.1367C25.0117 29.5156 24.9727 29.5625 24.9727 29.7031V31.1016C24.9727 31.25 25.0117 31.3047 25.1367 31.3047H26.582ZM30.9727 31.1016C30.9727 31.25 30.9258 31.3047 30.793 31.3047H29.3477C29.2305 31.3047 29.1836 31.25 29.1836 31.1016V29.7031C29.1836 29.5625 29.2305 29.5156 29.3477 29.5156H30.793C30.9258 29.5156 30.9727 29.5625 30.9727 29.7031V31.1016Z" fill="#141029" fill-opacity="0.6"/>
</svg>