<svg xmlns="http://www.w3.org/2000/svg" width="24" height="24" viewBox="0 0 24 24" fill="none">
  <path fill-rule="evenodd" clip-rule="evenodd" d="M15.4609 8.80469C15.4609 10.875 13.9219 12.5547 12.0078 12.5547C10.0859 12.5547 8.55469 10.8828 8.54688 8.8125C8.53906 6.78906 10.1016 5.14062 12.0078 5.14062C13.9141 5.14062 15.4609 6.77344 15.4609 8.80469ZM10.1094 8.8125C10.1094 10.0781 10.9766 11.0469 12.0078 11.0469C13.0391 11.0469 13.8984 10.0625 13.8984 8.80469C13.8984 7.58594 13.0391 6.64844 12.0078 6.64844C10.9766 6.64844 10.1016 7.60156 10.1094 8.8125ZM16.8438 19.8438C18.2266 19.8438 18.9062 19.3906 18.9062 18.4219C18.9062 16.1953 16.1484 13.4141 12 13.4141C7.85156 13.4141 5.09375 16.1953 5.09375 18.4219C5.09375 19.3906 5.77344 19.8438 7.16406 19.8438H16.8438ZM6.78125 18.1484C6.78125 18.2812 6.84375 18.3359 7.01562 18.3359H16.9844C17.1562 18.3359 17.2188 18.2812 17.2188 18.1484C17.2188 17.0234 15.3281 14.9219 12 14.9219C8.67188 14.9219 6.78125 17.0234 6.78125 18.1484Z" fill="#141029" fill-opacity="0.6"/>
</svg>