<svg xmlns="http://www.w3.org/2000/svg" width="48" height="48" viewBox="0 0 48 48" fill="none">
  <path fill-rule="evenodd" clip-rule="evenodd" d="M31.5234 30.4922C31.5234 31.2422 30.9531 31.8359 30.1953 31.8359C29.8359 31.8359 29.4844 31.7109 29.2266 31.4531L26.0078 28.2344C25.0547 28.8281 23.9297 29.1719 22.7344 29.1719C19.2969 29.1719 16.4766 26.3516 16.4766 22.9141C16.4766 19.4688 19.2969 16.6562 22.7344 16.6562C26.1719 16.6562 28.9844 19.4766 28.9844 22.9141C28.9844 24.1797 28.6094 25.3594 27.9531 26.3438L31.1406 29.5391C31.4062 29.8047 31.5234 30.1406 31.5234 30.4922ZM18.375 22.9141C18.375 25.3047 20.3359 27.2656 22.7344 27.2656C25.125 27.2656 27.0859 25.3047 27.0859 22.9141C27.0859 20.5234 25.125 18.5625 22.7344 18.5625C20.3359 18.5625 18.375 20.5234 18.375 22.9141Z" fill="#141029" fill-opacity="0.6"/>
</svg>