<svg xmlns="http://www.w3.org/2000/svg" width="24" height="24" viewBox="0 0 24 24" fill="none">
  <path fill-rule="evenodd" clip-rule="evenodd" d="M6.5 19.3359C6.96875 19.3359 7.34375 18.9766 7.34375 18.5312V16.3281C8.10156 16 8.63281 15.2422 8.63281 14.3672C8.63281 13.5 8.10156 12.7422 7.34375 12.4141V5.57812C7.34375 5.10938 6.96094 4.74219 6.5 4.74219C6.04688 4.74219 5.65625 5.11719 5.65625 5.57812V12.4141C4.89844 12.7422 4.36719 13.4922 4.36719 14.3672C4.36719 15.2422 4.89844 16 5.65625 16.3281V18.5312C5.65625 18.9766 6.04688 19.3359 6.5 19.3359ZM12.8438 18.5078C12.8438 18.9766 12.4688 19.3359 12 19.3359C11.5391 19.3359 11.1562 18.9766 11.1562 18.5078V11.6172C10.3984 11.2891 9.86719 10.5312 9.86719 9.66406C9.86719 8.78906 10.3984 8.03125 11.1562 7.70312V5.55469C11.1562 5.11719 11.5469 4.74219 12 4.74219C12.4609 4.74219 12.8438 5.10938 12.8438 5.55469V7.71094C13.6016 8.03906 14.1328 8.78906 14.1328 9.66406C14.1328 10.5391 13.6016 11.2891 12.8438 11.6172V18.5078ZM18.3438 18.5312C18.3438 18.9766 17.9688 19.3359 17.5 19.3359C17.0391 19.3359 16.6562 18.9766 16.6562 18.5312V16.3281C15.8984 15.9922 15.3672 15.2422 15.3672 14.3672C15.3672 13.5 15.8984 12.7422 16.6562 12.4141V5.57812C16.6562 5.11719 17.0469 4.74219 17.5 4.74219C17.9609 4.74219 18.3438 5.10938 18.3438 5.57812V12.4141C19.1016 12.7422 19.6328 13.4922 19.6328 14.3672C19.6328 15.2422 19.1016 16 18.3438 16.3281V18.5312ZM11 9.66406C11 10.2344 11.4453 10.6641 12 10.6641C12.5703 10.6641 13 10.2344 13 9.66406C13 9.10938 12.5703 8.66406 12 8.66406C11.4453 8.66406 11 9.10938 11 9.66406ZM17.5 15.3672C16.9453 15.3672 16.5 14.9375 16.5 14.3672C16.5 13.8125 16.9453 13.3672 17.5 13.3672C18.0703 13.3672 18.5 13.8125 18.5 14.3672C18.5 14.9375 18.0703 15.3672 17.5 15.3672ZM5.5 14.3672C5.5 14.9375 5.94531 15.3672 6.5 15.3672C7.07031 15.3672 7.5 14.9375 7.5 14.3672C7.5 13.8125 7.07031 13.3672 6.5 13.3672C5.94531 13.3672 5.5 13.8125 5.5 14.3672Z" fill="#141029" fill-opacity="0.6"/>
</svg>