<svg xmlns="http://www.w3.org/2000/svg" width="24" height="24" viewBox="0 0 24 24" fill="none">
  <path fill-rule="evenodd" clip-rule="evenodd" d="M10.2305 11.7969C10.2305 12.3438 9.85547 12.7266 9.30078 12.7266C9.06641 12.7266 8.80078 12.6172 8.62109 12.4375L4.58984 8.50781C4.18359 8.11719 4.18359 7.50781 4.58984 7.10938L8.62109 3.17969C8.80078 3 9.06641 2.89062 9.30078 2.89062C9.85547 2.89062 10.2305 3.27344 10.2305 3.82031C10.2305 4.07812 10.1445 4.29688 9.96484 4.46875L8.30078 6.07031L7.32422 6.92188L8.86328 6.875H18.7773C19.3086 6.875 19.7148 7.26562 19.7148 7.8125C19.7148 8.35156 19.3086 8.75 18.7773 8.75H8.86328L7.32422 8.69531L8.30078 9.54688L9.96484 11.1484C10.1445 11.3203 10.2305 11.5391 10.2305 11.7969ZM15.3789 21.5547C15.1992 21.7344 14.9336 21.8438 14.6914 21.8438C14.1445 21.8438 13.7617 21.4531 13.7617 20.9141C13.7617 20.6562 13.8555 20.4375 14.0352 20.2578L15.6992 18.6562L16.6758 17.8125L15.1367 17.8594H5.22266C4.68359 17.8594 4.28516 17.4688 4.28516 16.9219C4.28516 16.3828 4.68359 15.9844 5.22266 15.9844H15.1367L16.6758 16.0391L15.6992 15.1875L14.0352 13.5859C13.8555 13.4141 13.7617 13.1953 13.7617 12.9375C13.7617 12.3906 14.1445 12.0078 14.6914 12.0078C14.9336 12.0078 15.1992 12.1172 15.3789 12.2969L19.4102 16.2266C19.8086 16.6172 19.8164 17.2266 19.4102 17.625L15.3789 21.5547Z" fill="#141029" fill-opacity="0.6"/>
</svg>