<svg xmlns="http://www.w3.org/2000/svg" width="24" height="24" viewBox="0 0 24 24" fill="none">
  <path fill-rule="evenodd" clip-rule="evenodd" d="M12.6328 21.0625L20.3203 13.3672C20.9531 12.7344 21.0313 12.3438 21.0313 11.4062V8.44531C21.0313 7.5625 20.8203 7.22656 20.1563 6.5625L18.3672 4.77344C17.7031 4.10938 17.3672 3.89844 16.4844 3.89844H13.5234C12.5859 3.89844 12.2109 3.99219 11.5781 4.625L3.875 12.3125C2.67188 13.5234 2.65625 14.8281 3.88281 16.0469L8.89844 21.0547C10.125 22.2812 11.4219 22.2734 12.6328 21.0625ZM10.0234 19.6562L5.28125 14.9219C4.78125 14.4219 4.79688 13.9219 5.28125 13.4453L12.8516 5.875C13.0078 5.71875 13.1484 5.64062 13.3906 5.64062H16.4219C16.6484 5.64062 16.8047 5.71875 16.9531 5.86719L19.0625 7.97656C19.2109 8.11719 19.2891 8.28125 19.2891 8.50781V11.5391C19.2891 11.7969 19.2188 11.9375 19.0703 12.0938L11.5 19.6641C11.0156 20.1406 10.5234 20.1562 10.0234 19.6562ZM16.6328 9.46094C16.6328 10.1172 16.125 10.6328 15.4688 10.6328C14.8047 10.6328 14.2969 10.1172 14.2969 9.46094C14.2969 8.8125 14.8047 8.29688 15.4688 8.29688C16.125 8.29688 16.6328 8.8125 16.6328 9.46094Z" fill="#141029" fill-opacity="0.6"/>
</svg>