<svg xmlns="http://www.w3.org/2000/svg" width="48" height="48" viewBox="0 0 48 48" fill="none">
  <rect opacity="0.03" width="48" height="48" rx="12" fill="#00B8B9"/>
  <path d="M23.9961 31.8125C24.5898 31.8125 24.9961 31.3984 24.9961 30.7812V21.6328L24.9336 19.9375L26.7148 21.9609L28.4961 23.7266C28.6758 23.9141 28.918 24.0391 29.2148 24.0391C29.7617 24.0391 30.168 23.6328 30.168 23.0625C30.168 22.8047 30.0664 22.5547 29.8555 22.3438L24.7383 17.2266C24.5508 17.0234 24.2695 16.9141 23.9961 16.9141C23.7227 16.9141 23.4492 17.0234 23.2539 17.2266L18.1445 22.3438C17.9336 22.5547 17.832 22.8047 17.832 23.0625C17.832 23.6328 18.2383 24.0391 18.7852 24.0391C19.082 24.0391 19.3164 23.9141 19.5039 23.7266L21.2773 21.9609L23.0664 19.9375L22.9961 21.6328V30.7812C22.9961 31.3984 23.4023 31.8125 23.9961 31.8125Z" fill="#00B8B9"/>
</svg>