<svg xmlns="http://www.w3.org/2000/svg" width="20" height="20" viewBox="0 0 20 20" fill="none">
  <mask id="mask0_0_1702" style="mask-type:luminance" maskUnits="userSpaceOnUse" x="1" y="1" width="18" height="18">
    <rect x="1.66666" y="1.6665" width="16.6667" height="16.6667" rx="4" fill="white"/>
  </mask>
  <g mask="url(#mask0_0_1702)">
    <rect x="1.66666" y="1.6665" width="16.6667" height="2.08333" fill="#FAFBFC"/>
    <rect x="1.66666" y="3.75" width="16.6667" height="2.08333" fill="#B22234"/>
    <rect x="1.66666" y="5.83301" width="16.6667" height="2.08333" fill="#FAFBFC"/>
    <rect x="1.66666" y="7.9165" width="16.6667" height="2.08333" fill="#B22234"/>
    <rect x="1.66666" y="10" width="16.6667" height="2.08333" fill="#FAFBFC"/>
    <rect x="1.66666" y="12.083" width="16.6667" height="2.08333" fill="#B22234"/>
    <rect x="1.66666" y="14.1665" width="16.6667" height="2.08333" fill="#FAFBFC"/>
    <rect x="1.66666" y="16.25" width="16.6667" height="2.08333" fill="#B22234"/>
    <rect x="1.66666" y="1.6665" width="8.33333" height="8.33333" fill="#3C3B6E"/>
    <path fill-rule="evenodd" clip-rule="evenodd" d="M11.5563 4.31162L11.2865 3.48125L11.9928 2.96807H11.1197L10.8499 2.1377L10.5801 2.96807H9.70703L10.4134 3.48125L10.1436 4.31162L10.8499 3.79844L11.5563 4.31162ZM11.2865 5.90879L11.5563 6.73916L10.8499 6.22598L10.1436 6.73916L10.4134 5.90879L9.70703 5.39561H10.5801L10.8499 4.56523L11.1197 5.39561H11.9928L11.2865 5.90879ZM11.5563 9.1667L10.8499 8.65352L10.1436 9.1667L10.4134 8.33633L9.70703 7.82314H10.5801L10.8499 6.99277L11.1197 7.82314H11.9928L11.2865 8.33633L11.5563 9.1667ZM9.01722 9.1667L8.31087 8.65352L7.60452 9.1667L7.87435 8.33633L7.16797 7.82314H8.04108L8.31087 6.99277L8.58066 7.82314H9.45378L8.7474 8.33633L9.01722 9.1667ZM8.7474 3.48125L9.01722 4.31162L8.31087 3.79844L7.60452 4.31162L7.87435 3.48125L7.16797 2.96807H8.04108L8.31087 2.1377L8.58066 2.96807H9.45378L8.7474 3.48125ZM9.01722 6.73916L8.7474 5.90879L9.45378 5.39561H8.58066L8.31087 4.56523L8.04108 5.39561H7.16797L7.87435 5.90879L7.60452 6.73916L8.31087 6.22598L9.01722 6.73916Z" fill="#FAFBFC"/>
  </g>
</svg>